<mxfile host="Electron" agent="Mozilla/5.0 (X11; Linux x86_64) AppleWebKit/537.36 (KHTML, like Gecko) draw.io/24.7.8 Chrome/128.0.6613.36 Electron/32.0.1 Safari/537.36" version="24.7.8">
  <diagram name="Page-1" id="pMLEpbHTJiHokQqkvctQ">
    <mxGraphModel dx="576" dy="528" grid="1" gridSize="10" guides="1" tooltips="1" connect="1" arrows="1" fold="1" page="1" pageScale="1" pageWidth="850" pageHeight="1100" math="1" shadow="0">
      <root>
        <mxCell id="0" />
        <mxCell id="1" parent="0" />
        <mxCell id="Kmkl9x8BGebhSCYqmNap-1" value="" style="pointerEvents=1;verticalLabelPosition=bottom;shadow=0;dashed=0;align=center;html=1;verticalAlign=top;shape=mxgraph.electrical.resistors.resistor_1;strokeWidth=3;" vertex="1" parent="1">
          <mxGeometry x="270" y="70" width="100" height="20" as="geometry" />
        </mxCell>
        <mxCell id="Kmkl9x8BGebhSCYqmNap-6" style="edgeStyle=orthogonalEdgeStyle;rounded=0;orthogonalLoop=1;jettySize=auto;html=1;exitX=0;exitY=0.5;exitDx=0;exitDy=0;exitPerimeter=0;endArrow=none;endFill=0;strokeWidth=3;" edge="1" parent="1" source="Kmkl9x8BGebhSCYqmNap-2">
          <mxGeometry relative="1" as="geometry">
            <mxPoint x="439.4809160305344" y="80" as="targetPoint" />
          </mxGeometry>
        </mxCell>
        <mxCell id="Kmkl9x8BGebhSCYqmNap-2" value="" style="pointerEvents=1;verticalLabelPosition=bottom;shadow=0;dashed=0;align=center;html=1;verticalAlign=top;shape=mxgraph.electrical.capacitors.capacitor_1;direction=south;strokeWidth=3;" vertex="1" parent="1">
          <mxGeometry x="422" y="86" width="35" height="100" as="geometry" />
        </mxCell>
        <mxCell id="Kmkl9x8BGebhSCYqmNap-4" value="" style="pointerEvents=1;verticalLabelPosition=bottom;shadow=0;dashed=0;align=center;html=1;verticalAlign=top;shape=mxgraph.electrical.capacitors.capacitor_1;direction=south;strokeWidth=3;" vertex="1" parent="1">
          <mxGeometry x="422" y="160" width="35" height="100" as="geometry" />
        </mxCell>
        <mxCell id="Kmkl9x8BGebhSCYqmNap-5" value="" style="endArrow=none;html=1;rounded=0;strokeWidth=3;" edge="1" parent="1">
          <mxGeometry width="50" height="50" relative="1" as="geometry">
            <mxPoint x="370" y="80" as="sourcePoint" />
            <mxPoint x="440" y="80" as="targetPoint" />
          </mxGeometry>
        </mxCell>
        <mxCell id="Kmkl9x8BGebhSCYqmNap-7" value="" style="pointerEvents=1;verticalLabelPosition=bottom;shadow=0;dashed=0;align=center;html=1;verticalAlign=top;shape=mxgraph.electrical.signal_sources.signal_ground;strokeWidth=3;" vertex="1" parent="1">
          <mxGeometry x="429.5" y="260" width="20" height="20" as="geometry" />
        </mxCell>
        <mxCell id="Kmkl9x8BGebhSCYqmNap-8" value="" style="endArrow=none;html=1;rounded=0;strokeWidth=3;" edge="1" parent="1">
          <mxGeometry width="50" height="50" relative="1" as="geometry">
            <mxPoint x="220" y="80" as="sourcePoint" />
            <mxPoint x="270" y="80" as="targetPoint" />
          </mxGeometry>
        </mxCell>
        <mxCell id="Kmkl9x8BGebhSCYqmNap-9" value="&lt;font style=&quot;font-size: 20px;&quot;&gt;$$V_x$$&lt;/font&gt;" style="text;html=1;align=center;verticalAlign=middle;whiteSpace=wrap;rounded=0;strokeWidth=3;" vertex="1" parent="1">
          <mxGeometry x="380" y="50" width="60" height="30" as="geometry" />
        </mxCell>
        <mxCell id="Kmkl9x8BGebhSCYqmNap-10" value="&lt;font style=&quot;font-size: 20px;&quot;&gt;$$V_y$$&lt;/font&gt;" style="text;html=1;align=center;verticalAlign=middle;whiteSpace=wrap;rounded=0;" vertex="1" parent="1">
          <mxGeometry x="440" y="156" width="60" height="30" as="geometry" />
        </mxCell>
        <mxCell id="Kmkl9x8BGebhSCYqmNap-11" value="&lt;font style=&quot;font-size: 20px;&quot;&gt;$$V_i$$&lt;/font&gt;" style="text;html=1;align=center;verticalAlign=middle;whiteSpace=wrap;rounded=0;" vertex="1" parent="1">
          <mxGeometry x="190" y="40" width="60" height="30" as="geometry" />
        </mxCell>
        <mxCell id="Kmkl9x8BGebhSCYqmNap-12" value="&lt;font style=&quot;font-size: 16px;&quot;&gt;$$R$$&lt;/font&gt;" style="text;html=1;align=center;verticalAlign=middle;whiteSpace=wrap;rounded=0;strokeWidth=3;" vertex="1" parent="1">
          <mxGeometry x="290" y="40" width="60" height="30" as="geometry" />
        </mxCell>
        <mxCell id="Kmkl9x8BGebhSCYqmNap-13" value="&lt;font style=&quot;font-size: 16px;&quot;&gt;$$C_1$$&lt;/font&gt;" style="text;html=1;align=center;verticalAlign=middle;whiteSpace=wrap;rounded=0;strokeWidth=3;" vertex="1" parent="1">
          <mxGeometry x="370" y="121" width="60" height="30" as="geometry" />
        </mxCell>
        <mxCell id="Kmkl9x8BGebhSCYqmNap-14" value="&lt;font style=&quot;font-size: 16px;&quot;&gt;$$C_2$$&lt;/font&gt;" style="text;html=1;align=center;verticalAlign=middle;whiteSpace=wrap;rounded=0;strokeWidth=3;" vertex="1" parent="1">
          <mxGeometry x="370" y="195" width="60" height="30" as="geometry" />
        </mxCell>
      </root>
    </mxGraphModel>
  </diagram>
</mxfile>
